# xmcd
#
# Track frame offsets: 
#        150
#        14048
#        31352
#        44768
#        63012
#        81297
#        98305
#        123720
#        140310
#        152244
#        167441
#        182287
#        195607
#        211125
#        228549
#
# Disc length: 3235 seconds
#
# Revision: 0
# Processed by: cddbd v1.5.2PL0 Copyright (c) Steve Scherf et al.
# Submitted via: ExactAudioCopyFreeDBPlugin 1.0
#
DISCID=c10ca10f
DTITLE=Various Artist - Faith, Hope and Country - Old Time Religion - D
DTITLE=isc 1
DYEAR=2016
DGENRE=Country
TTITLE0=LeAnn Rimes - God Bless America
TTITLE1=Kenny Rogers with Wynonna Judd - Mary, Did You Know
TTITLE2=B. J. Thomas - Sweet Hour Of Prayer
TTITLE3=Charlie Daniels - Awesome God
TTITLE4=Randy Travis - Raise Him Up
TTITLE5=T. Graham Brown - Wine Into Water
TTITLE6=Bob Carlisle - Butterfly Kisses
TTITLE7=John Anderson - I'm Just An Old Chunk Of Coal (But I'm Gonna B
TTITLE7=e A Diamond Some Day)
TTITLE8=Jimmie Rodgers - I Believe
TTITLE9=Randy Travis - Three Wooden Crosses
TTITLE10=Crystal Gayle - I Need Thee Every Hour
TTITLE11=Claude Gray - Family Bible
TTITLE12=Randy Travis - He Walked On Water
TTITLE13=John Michael Montgomery - The Little Girl
TTITLE14=The Everly Brothers - That Silver Haired Daddy Of Mine
EXTD=
EXTT0=
EXTT1=
EXTT2=
EXTT3=
EXTT4=
EXTT5=
EXTT6=
EXTT7=
EXTT8=
EXTT9=
EXTT10=
EXTT11=
EXTT12=
EXTT13=
EXTT14=
PLAYORDER=
